<svg width="80" height="80" viewBox="0 0 80 80" fill="none" xmlns="http://www.w3.org/2000/svg">
<rect width="80" height="80" rx="40" fill="#4BA0EB" fill-opacity="0.1"/>
<path d="M20.667 37.6218L20.667 54.5384M29.1253 36.6247V52.467C29.1253 55.1364 31.2893 57.3003 33.9587 57.3003H53.0267C55.298 57.3003 57.263 55.7188 57.7483 53.4999L61.1087 38.1382C61.4384 36.6311 60.2906 35.2051 58.7479 35.2051H49.667C46.9976 35.2051 44.8337 33.0411 44.8337 30.3718V27.0302C44.8337 24.5277 43.8395 22.1276 42.0699 20.3581C41.006 19.2941 39.2313 19.4848 38.4176 20.7505L29.893 34.011C29.3918 34.7906 29.1253 35.6979 29.1253 36.6247Z" stroke="#0154A7" stroke-width="3" stroke-linecap="round"/>
</svg>
