<svg width="80" height="80" viewBox="0 0 80 80" fill="none" xmlns="http://www.w3.org/2000/svg">
<rect width="80" height="80" rx="40" fill="#4BA0EB" fill-opacity="0.1"/>
<path d="M48.4587 31.5416L57.4677 38.5487C58.645 39.4644 59.3337 40.8897 59.3337 42.3812C59.3337 45.0506 57.1697 47.25 54.5003 47.25H44.8337M31.542 31.5416L22.5329 38.5487C21.3556 39.4644 20.667 40.8897 20.667 42.3812C20.667 45.0506 22.8309 47.25 25.5003 47.25H35.167M30.3337 56.9166H37.5837M42.417 56.9166H49.667M32.4903 30.9106L38.8179 60.9668C39.0872 62.246 40.9134 62.246 41.1827 60.9668L47.5104 30.9106C48.7809 24.8755 45.8199 18.7431 40.3036 15.9849C40.1127 15.8895 39.888 15.8895 39.697 15.9849C34.1808 18.7431 31.2198 24.8756 32.4903 30.9106Z" stroke="#0154A7" stroke-width="3" stroke-linecap="round"/>
</svg>
