<svg width="36" height="36" viewBox="0 0 36 36" fill="none" xmlns="http://www.w3.org/2000/svg">
<path d="M23.2504 14.5H18.0004V9.24998C18.0004 8.78586 17.8161 8.34074 17.4879 8.01255C17.1597 7.68436 16.7146 7.49999 16.2504 7.49999C15.7863 7.49999 15.3412 7.68436 15.013 8.01255C14.6848 8.34074 14.5004 8.78586 14.5004 9.24998V14.5H9.25044C8.78631 14.5 8.3412 14.6844 8.01301 15.0125C7.68482 15.3407 7.50044 15.7859 7.50044 16.25C7.50044 16.7141 7.68482 17.1592 8.01301 17.4874C8.3412 17.8156 8.78631 18 9.25044 18H14.5004V23.25C14.5004 23.7141 14.6848 24.1592 15.013 24.4874C15.3412 24.8156 15.7863 25 16.2504 25C16.7146 25 17.1597 24.8156 17.4879 24.4874C17.8161 24.1592 18.0004 23.7141 18.0004 23.25V18H23.2504C23.7146 18 24.1597 17.8156 24.4879 17.4874C24.8161 17.1592 25.0004 16.7141 25.0004 16.25C25.0004 15.7859 24.8161 15.3407 24.4879 15.0125C24.1597 14.6844 23.7146 14.5 23.2504 14.5ZM34.9929 32.5075L28.5004 26.0675C31.0206 22.9252 32.2411 18.9368 31.9109 14.9223C31.5807 10.9078 29.7249 7.17235 26.7251 4.48411C23.7253 1.79587 19.8096 0.359128 15.7831 0.469309C11.7565 0.579489 7.92521 2.22822 5.07694 5.07648C2.22868 7.92475 0.579947 11.7561 0.469766 15.7826C0.359586 19.8091 1.79633 23.7249 4.48457 26.7246C7.17281 29.7244 10.9082 31.5802 14.9227 31.9104C18.9372 32.2406 22.9257 31.0202 26.0679 28.5L32.5079 34.94C32.6706 35.104 32.8642 35.2342 33.0774 35.323C33.2907 35.4119 33.5194 35.4576 33.7504 35.4576C33.9815 35.4576 34.2102 35.4119 34.4235 35.323C34.6367 35.2342 34.8303 35.104 34.9929 34.94C35.3084 34.6137 35.4847 34.1776 35.4847 33.7237C35.4847 33.2699 35.3084 32.8338 34.9929 32.5075ZM16.2504 28.5C13.8276 28.5 11.4592 27.7815 9.44471 26.4355C7.43021 25.0894 5.86009 23.1763 4.93292 20.9379C4.00574 18.6995 3.76315 16.2364 4.23582 13.8601C4.70849 11.4839 5.87519 9.30112 7.58839 7.58793C9.30158 5.87473 11.4843 4.70803 13.8606 4.23537C16.2369 3.7627 18.6999 4.00529 20.9383 4.93246C23.1767 5.85963 25.0899 7.42975 26.4359 9.44425C27.782 11.4588 28.5004 13.8272 28.5004 16.25C28.5004 19.4989 27.2098 22.6147 24.9125 24.912C22.6152 27.2094 19.4993 28.5 16.2504 28.5Z" fill="white"/>
</svg>
